<svg width="50" height="52" viewBox="0 0 50 52" fill="none" xmlns="http://www.w3.org/2000/svg">
<g clip-path="url(#clip0)">
<path d="M44.0477 24.9281H40.4762V15.3161C40.4762 12.6608 38.3453 10.5101 35.7143 10.5101H26.1905V6.90559C26.1905 3.58945 23.5238 0.898132 20.2381 0.898132C16.9523 0.898132 14.2857 3.58945 14.2857 6.90559V10.5101H4.76194C2.13103 10.5101 0.0238839 12.6607 0.0238839 15.3161L0.011942 24.4476H3.57143C7.11908 24.4476 10 27.3551 10 30.9356C10 34.5162 7.11908 37.4237 3.57143 37.4237H0.011942L0 46.5551C0 49.2105 2.13092 51.3611 4.76194 51.3611H13.8096V47.7566C13.8096 44.1761 16.6905 41.2685 20.2382 41.2685C23.7858 41.2685 26.6667 44.1761 26.6667 47.7566V51.3611H35.7143C38.3452 51.3611 40.4762 49.2105 40.4762 46.5551V36.9431H44.0477C47.3334 36.9431 50 34.2518 50 30.9356C50 27.6195 47.3334 24.9281 44.0477 24.9281Z" fill="white"/>
</g>
<defs>
<clipPath id="clip0">
<rect width="50" height="50.463" fill="white" transform="translate(0 0.898132)"/>
</clipPath>
</defs>
</svg>
