<svg width="49" height="51" viewBox="0 0 49 51" fill="none" xmlns="http://www.w3.org/2000/svg">
<g clip-path="url(#clip0)">
<path d="M48.7506 2.84941C48.5325 2.65633 48.2221 2.61153 47.959 2.73469L0.423831 25.0254C0.167918 25.1454 0.00311998 25.4031 4.37469e-05 25.6879C-0.00303249 25.9726 0.156346 26.2338 0.409769 26.3594L13.8621 33.0224C14.1088 33.1446 14.403 33.117 14.6233 32.9508L27.7027 23.0846L17.4348 33.7442C17.2883 33.8963 17.2136 34.1046 17.2297 34.316L18.2521 47.7534C18.2748 48.0511 18.4725 48.3057 18.7536 48.399C18.8288 48.4238 18.906 48.436 18.9823 48.436C19.1916 48.436 19.3953 48.3453 19.5369 48.1798L26.677 39.8293L35.5036 44.0857C35.6952 44.1781 35.917 44.1819 36.1117 44.0965C36.3063 44.0109 36.4546 43.8444 36.5182 43.6401L48.9664 3.62663C49.0534 3.3472 48.9686 3.0425 48.7506 2.84941Z" fill="white"/>
</g>
<defs>
<clipPath id="clip0">
<rect width="49" height="49.4537" fill="white" transform="translate(0 0.824097)"/>
</clipPath>
</defs>
</svg>
