<svg width="60" height="62" viewBox="0 0 60 62" fill="none" xmlns="http://www.w3.org/2000/svg">
<g clip-path="url(#clip0)">
<path d="M49.7859 25.6919L30.0001 32.3113L10.2142 25.6919L30.0001 19.0727L49.7859 25.6919Z" fill="white"/>
<path d="M5.3815 27.8133L27.3169 35.1517L21.9443 43.7649L0.00880814 36.4263L5.3815 27.8133Z" fill="white"/>
<path d="M31.7577 40.3283L36.5478 48.0074L53.6146 42.2976V54.123L31.7577 61.4352V40.3283Z" fill="white"/>
<path d="M23.4521 48.0074L28.2422 40.3283V61.4352L6.38532 54.123V42.2976L23.4521 48.0074Z" fill="white"/>
<path d="M38.0557 43.7649L32.6831 35.1517L54.6185 27.8133L59.9912 36.4263L38.0557 43.7649Z" fill="white"/>
<path d="M31.7578 0.879639H28.2422V12.7275H31.7578V0.879639Z" fill="white"/>
<path d="M48.2906 6.30114L45.2461 4.52706L39.3765 14.7873L42.4211 16.5614L48.2906 6.30114Z" fill="white"/>
<path d="M20.6241 14.7885L14.7546 4.52823L11.7101 6.30232L17.5796 16.5626L20.6241 14.7885Z" fill="white"/>
</g>
<defs>
<clipPath id="clip0">
<rect width="60" height="60.5556" fill="white" transform="matrix(-1 0 0 1 60 0.879639)"/>
</clipPath>
</defs>
</svg>
