<svg width="47" height="47" viewBox="0 0 47 47" fill="none" xmlns="http://www.w3.org/2000/svg">
<g clip-path="url(#clip0)">
<path d="M29.3747 25.4589C28.2918 25.4589 27.4165 26.3363 27.4165 27.4171V35.2506C27.4165 36.3295 26.5391 37.2087 25.4579 37.2087H19.583V7.83405C19.583 6.16164 18.5177 4.66745 16.9159 4.11129L16.3361 3.9173H25.4579C26.5391 3.9173 27.4165 4.79654 27.4165 5.87586V11.7508C27.4165 12.8315 28.2918 13.709 29.3747 13.709C30.4576 13.709 31.3329 12.8315 31.3329 11.7508V5.87586C31.3329 2.63682 28.697 0.000915527 25.4579 0.000915527H4.4062C4.33162 0.000915527 4.26923 0.0342633 4.19679 0.0439449C4.10249 0.0360562 4.01249 0.000915527 3.91675 0.000915527C1.75667 0.000915527 0 1.75723 0 3.9173V39.1669C0 40.8394 1.06533 42.3335 2.6671 42.8897L14.4525 46.8183C14.8519 46.9416 15.2492 47.0004 15.6666 47.0004C17.8267 47.0004 19.583 45.2438 19.583 43.0837V41.1255H25.4579C28.697 41.1255 31.3329 38.4896 31.3329 35.2506V27.4171C31.3329 26.3363 30.4576 25.4589 29.3747 25.4589Z" fill="white"/>
<path d="M46.4258 18.1991L38.5924 10.366C38.0326 9.80591 37.1903 9.63737 36.4581 9.94073C35.7277 10.2444 35.2497 10.9591 35.2497 11.7505V17.6254H27.4166C26.3354 17.6254 25.458 18.5025 25.458 19.5836C25.458 20.6647 26.3354 21.5418 27.4166 21.5418H35.2497V27.4167C35.2497 28.2081 35.7277 28.9228 36.4581 29.2265C37.1903 29.5298 38.0326 29.3613 38.5924 28.8016L46.4258 20.9681C47.1914 20.2025 47.1914 18.9647 46.4258 18.1991Z" fill="white"/>
</g>
<defs>
<clipPath id="clip0">
<rect width="47" height="47" fill="white"/>
</clipPath>
</defs>
</svg>
